<?xml version="1.0" encoding="UTF-8"?><svg id="a" xmlns="http://www.w3.org/2000/svg" width="206.77" height="47.27" viewBox="0 0 206.77 47.27"><path d="M205.99,3.12c-1.13-1.44-2.73-1.87-4.41-1.41-1.51,.41-3.05,.99-4.36,1.82-4.19,2.68-7.44,6.39-10.53,10.23-.31,.38-.63,.75-1.17,1.4,0-2.79,.15-5.15-.04-7.48-.22-2.58-.99-5.07-3.39-6.53-3.03-1.85-6.05-1.31-8.88,.52-3.9,2.52-6.7,6.13-9.38,9.81-1.51,2.08-2.9,4.24-4.34,6.37-.23-1.22-.06-2.37-.11-3.51-.11-2.62-.08-5.28-.57-7.83-.47-2.43-2.24-3.99-4.77-4.52-3.26-.68-6.22,.34-7.9,3.22-1.1,1.89-1.95,4.03-2.39,6.16-1.37,6.74-1.16,13.56-.23,20.34,.51,3.7,1.42,7.33,3.47,10.53,1.79,2.78,4.06,4.84,7.65,5.02,4.18,.21,7.1-1.81,9.11-5.18,1.69-2.84,3.06-5.87,4.57-8.82,1.31-2.58,2.61-5.16,3.91-7.75l.46,.15c0,.99-.01,1.97,0,2.96,.05,2.88,.36,5.71,1.82,8.29,3.02,5.31,9.2,6.18,13.43,1.79,1.06-1.09,1.98-2.41,2.64-3.77,4.15-8.51,8.58-16.84,14.07-24.58,.6-.85,1.18-1.75,1.57-2.7,.62-1.51,.86-3.11-.25-4.52Z" fill="#fff"/><polygon points="18.65 27.67 15.12 15.55 11.62 15.55 8.13 27.67 4.44 15.55 0 15.55 5.65 31.75 10.29 31.75 11.95 26.98 13.39 21.59 14.82 26.98 16.49 31.75 21.13 31.75 26.74 15.55 22.34 15.55 18.65 27.67" fill="#fff"/><path d="M42.74,17.8c-.91-1.6-2.97-2.61-5.13-2.61-4.7-.03-8.39,2.87-8.39,8.42s3.53,8.59,8.29,8.56c1.8-.03,4.31-.95,5.22-2.84l.2,2.35h3.76v-15.18h-3.82l-.13,1.3Zm-4.17,10.68c-2.91,.29-5.36-1.57-5.36-4.87s2.44-5.12,5.35-4.84c5.73,.56,5.74,9.13,.01,9.7Z" fill="#fff"/><path d="M70.07,28.29c-1.24,0-2.09-.75-2.09-2.29v-6.96h4.47v-3.43h-4.44v-5.18l-3.98,1.04v4.15h-9.04v-5.18l-3.98,1.04v4.15h-3v3.43h3v6.96c0,4.02,2.29,6.01,5.78,5.88,1.21-.03,2.16-.23,3.3-.69l-1.11-3.4c-.59,.29-1.31,.49-1.93,.49-1.24,0-2.09-.75-2.09-2.29v-6.96h9.08v6.96c0,4.02,2.29,6.01,5.78,5.88,1.21-.03,2.16-.23,3.3-.69l-1.11-3.4c-.59,.29-1.31,.49-1.93,.49Z" fill="#fff"/><path d="M84.64,15.23c-1.83,0-3.98,.78-5.22,2.58l-.26-1.3h-3.72v21.91h3.98v-8.62c1.14,1.76,3.66,2.29,5.36,2.29,5.16,0,8.13-3.72,8.13-8.42s-3.3-8.42-8.26-8.42Zm-.29,13c-2.71,0-4.57-2.06-4.57-4.57s1.7-4.57,4.57-4.57,4.57,2.06,4.57,4.57-1.86,4.57-4.57,4.57Z" fill="#fff"/><path d="M108.47,17.8c-.91-1.6-2.97-2.61-5.13-2.61-4.7-.03-8.39,2.87-8.39,8.42s3.53,8.59,8.29,8.56c1.8-.03,4.31-.95,5.22-2.84l.2,2.35h3.76v-15.18h-3.82l-.13,1.3Zm-4.17,10.68c-2.91,.29-5.36-1.57-5.36-4.87s2.44-5.12,5.35-4.84c5.73,.56,5.74,9.13,.01,9.7Z" fill="#fff"/><path d="M128.52,17.77c-.95-1.67-3.59-2.58-5.29-2.58-4.7,0-8.2,2.87-8.2,8.42s3.56,8.42,8.29,8.42c1.96,0,3.95-.65,5.19-2.58l.26,2.22h3.72V8.86h-3.98v8.91Zm-4.93,10.58c-2.55,0-4.57-1.93-4.57-4.73s2.02-4.7,4.57-4.7,4.67,1.89,4.67,4.7-2.16,4.73-4.67,4.73Z" fill="#fff"/></svg>